<mxfile host="app.diagrams.net" modified="2022-10-03T14:46:24.315Z" agent="5.0 (Windows NT 10.0; Win64; x64) AppleWebKit/537.36 (KHTML, like Gecko) Chrome/105.0.0.0 Safari/537.36 Edg/105.0.1343.53" etag="4kFZGBnWlcsrJreBIPFy" version="20.4.0" type="github">
  <diagram id="ATBXkO5vU11YBHVSIYL_" name="第 1 页">
    <mxGraphModel dx="1037" dy="547" grid="1" gridSize="10" guides="1" tooltips="1" connect="1" arrows="1" fold="1" page="1" pageScale="1" pageWidth="3300" pageHeight="2339" math="0" shadow="0">
      <root>
        <mxCell id="0" />
        <mxCell id="1" parent="0" />
        <mxCell id="I8V3-0tC-meu3FJkDAmC-23" value="" style="rounded=1;whiteSpace=wrap;html=1;strokeWidth=3;fontSize=16;fillColor=#e1d5e7;strokeColor=#9673a6;" vertex="1" parent="1">
          <mxGeometry x="620" y="210" width="160" height="80" as="geometry" />
        </mxCell>
        <mxCell id="I8V3-0tC-meu3FJkDAmC-21" value="" style="rounded=1;whiteSpace=wrap;html=1;strokeWidth=3;fontSize=16;fillColor=#dae8fc;strokeColor=#6c8ebf;" vertex="1" parent="1">
          <mxGeometry x="220" y="380" width="160" height="80" as="geometry" />
        </mxCell>
        <mxCell id="I8V3-0tC-meu3FJkDAmC-19" value="" style="rounded=1;whiteSpace=wrap;html=1;fontSize=16;fillColor=#d5e8d4;strokeWidth=3;strokeColor=#82b366;" vertex="1" parent="1">
          <mxGeometry x="220" y="220" width="160" height="150" as="geometry" />
        </mxCell>
        <mxCell id="I8V3-0tC-meu3FJkDAmC-17" value="" style="rounded=1;whiteSpace=wrap;html=1;fontSize=16;fillColor=#fff2cc;strokeWidth=3;strokeColor=#d6b656;" vertex="1" parent="1">
          <mxGeometry x="220" y="60" width="160" height="150" as="geometry" />
        </mxCell>
        <mxCell id="I8V3-0tC-meu3FJkDAmC-16" value="" style="rounded=1;whiteSpace=wrap;html=1;fontSize=16;fillColor=#f8cecc;strokeWidth=3;strokeColor=#b85450;" vertex="1" parent="1">
          <mxGeometry x="420" y="210" width="160" height="80" as="geometry" />
        </mxCell>
        <mxCell id="I8V3-0tC-meu3FJkDAmC-1" value="&lt;b&gt;&lt;font style=&quot;font-size: 14px;&quot;&gt;Jetson Nano&lt;/font&gt;&lt;/b&gt;" style="rounded=0;whiteSpace=wrap;html=1;" vertex="1" parent="1">
          <mxGeometry x="440" y="220" width="120" height="60" as="geometry" />
        </mxCell>
        <mxCell id="I8V3-0tC-meu3FJkDAmC-2" value="&lt;b style=&quot;font-size: 16px;&quot;&gt;Ventilateur&amp;nbsp;&lt;/b&gt;" style="rounded=0;whiteSpace=wrap;html=1;fontSize=14;" vertex="1" parent="1">
          <mxGeometry x="240" y="140" width="120" height="60" as="geometry" />
        </mxCell>
        <mxCell id="I8V3-0tC-meu3FJkDAmC-3" value="&lt;b&gt;&lt;font style=&quot;font-size: 16px;&quot;&gt;Cellule Photovoltaïque&lt;/font&gt;&lt;/b&gt;" style="rounded=0;whiteSpace=wrap;html=1;fontSize=14;" vertex="1" parent="1">
          <mxGeometry x="240" y="230" width="120" height="60" as="geometry" />
        </mxCell>
        <mxCell id="I8V3-0tC-meu3FJkDAmC-4" value="&lt;b style=&quot;font-size: 16px;&quot;&gt;Capteur de la température&lt;/b&gt;&lt;span style=&quot;font-size: 16px;&quot;&gt;&lt;b&gt;&lt;br&gt;&lt;/b&gt;&lt;/span&gt;" style="rounded=0;whiteSpace=wrap;html=1;fontSize=14;" vertex="1" parent="1">
          <mxGeometry x="240" y="300" width="120" height="60" as="geometry" />
        </mxCell>
        <mxCell id="I8V3-0tC-meu3FJkDAmC-5" value="&lt;b style=&quot;font-size: 16px;&quot;&gt;Voyant Lumière&lt;/b&gt;" style="rounded=0;whiteSpace=wrap;html=1;fontSize=14;" vertex="1" parent="1">
          <mxGeometry x="240" y="390" width="120" height="60" as="geometry" />
        </mxCell>
        <mxCell id="I8V3-0tC-meu3FJkDAmC-6" value="&lt;span style=&quot;font-size: 16px;&quot;&gt;&lt;b&gt;Résistance Chauffante&lt;/b&gt;&lt;/span&gt;" style="rounded=0;whiteSpace=wrap;html=1;fontSize=14;" vertex="1" parent="1">
          <mxGeometry x="240" y="70" width="120" height="60" as="geometry" />
        </mxCell>
        <mxCell id="I8V3-0tC-meu3FJkDAmC-8" value="&lt;span style=&quot;font-size: 16px;&quot;&gt;&lt;b&gt;Google&lt;br&gt;Drive / Cloud&lt;br&gt;&lt;/b&gt;&lt;/span&gt;" style="rounded=0;whiteSpace=wrap;html=1;fontSize=14;" vertex="1" parent="1">
          <mxGeometry x="640" y="220" width="120" height="60" as="geometry" />
        </mxCell>
        <mxCell id="I8V3-0tC-meu3FJkDAmC-9" value="" style="endArrow=none;html=1;rounded=0;fontSize=16;exitX=1;exitY=0.5;exitDx=0;exitDy=0;entryX=0;entryY=0;entryDx=0;entryDy=0;" edge="1" parent="1" source="I8V3-0tC-meu3FJkDAmC-6" target="I8V3-0tC-meu3FJkDAmC-1">
          <mxGeometry width="50" height="50" relative="1" as="geometry">
            <mxPoint x="400" y="110" as="sourcePoint" />
            <mxPoint x="450" y="60" as="targetPoint" />
          </mxGeometry>
        </mxCell>
        <mxCell id="I8V3-0tC-meu3FJkDAmC-10" value="" style="endArrow=none;html=1;rounded=0;fontSize=16;exitX=1;exitY=0.5;exitDx=0;exitDy=0;entryX=0;entryY=0.25;entryDx=0;entryDy=0;" edge="1" parent="1" source="I8V3-0tC-meu3FJkDAmC-2" target="I8V3-0tC-meu3FJkDAmC-1">
          <mxGeometry width="50" height="50" relative="1" as="geometry">
            <mxPoint x="510" y="300" as="sourcePoint" />
            <mxPoint x="560" y="250" as="targetPoint" />
          </mxGeometry>
        </mxCell>
        <mxCell id="I8V3-0tC-meu3FJkDAmC-11" value="" style="endArrow=none;html=1;rounded=0;fontSize=16;exitX=1;exitY=0.5;exitDx=0;exitDy=0;entryX=0;entryY=0.5;entryDx=0;entryDy=0;" edge="1" parent="1" source="I8V3-0tC-meu3FJkDAmC-3" target="I8V3-0tC-meu3FJkDAmC-1">
          <mxGeometry width="50" height="50" relative="1" as="geometry">
            <mxPoint x="510" y="300" as="sourcePoint" />
            <mxPoint x="560" y="250" as="targetPoint" />
          </mxGeometry>
        </mxCell>
        <mxCell id="I8V3-0tC-meu3FJkDAmC-12" value="" style="endArrow=none;html=1;rounded=0;fontSize=16;exitX=1;exitY=0.5;exitDx=0;exitDy=0;entryX=0;entryY=0.75;entryDx=0;entryDy=0;" edge="1" parent="1" source="I8V3-0tC-meu3FJkDAmC-4" target="I8V3-0tC-meu3FJkDAmC-1">
          <mxGeometry width="50" height="50" relative="1" as="geometry">
            <mxPoint x="510" y="300" as="sourcePoint" />
            <mxPoint x="560" y="250" as="targetPoint" />
          </mxGeometry>
        </mxCell>
        <mxCell id="I8V3-0tC-meu3FJkDAmC-13" value="" style="endArrow=none;html=1;rounded=0;fontSize=16;exitX=1;exitY=0.5;exitDx=0;exitDy=0;entryX=0;entryY=1;entryDx=0;entryDy=0;" edge="1" parent="1" source="I8V3-0tC-meu3FJkDAmC-5" target="I8V3-0tC-meu3FJkDAmC-1">
          <mxGeometry width="50" height="50" relative="1" as="geometry">
            <mxPoint x="510" y="300" as="sourcePoint" />
            <mxPoint x="560" y="250" as="targetPoint" />
          </mxGeometry>
        </mxCell>
        <mxCell id="I8V3-0tC-meu3FJkDAmC-14" value="" style="endArrow=none;html=1;rounded=0;fontSize=16;entryX=0;entryY=0.5;entryDx=0;entryDy=0;exitX=1;exitY=0.5;exitDx=0;exitDy=0;" edge="1" parent="1" source="I8V3-0tC-meu3FJkDAmC-1" target="I8V3-0tC-meu3FJkDAmC-8">
          <mxGeometry width="50" height="50" relative="1" as="geometry">
            <mxPoint x="510" y="300" as="sourcePoint" />
            <mxPoint x="560" y="250" as="targetPoint" />
          </mxGeometry>
        </mxCell>
        <mxCell id="I8V3-0tC-meu3FJkDAmC-15" value="Contrôleur Central" style="text;html=1;strokeColor=#b85450;fillColor=#f8cecc;align=center;verticalAlign=middle;whiteSpace=wrap;rounded=0;fontSize=16;" vertex="1" parent="1">
          <mxGeometry x="460" y="290" width="80" height="40" as="geometry" />
        </mxCell>
        <mxCell id="I8V3-0tC-meu3FJkDAmC-18" value="Contrôle la Température" style="text;html=1;strokeColor=#d6b656;fillColor=#fff2cc;align=center;verticalAlign=middle;whiteSpace=wrap;rounded=0;fontSize=16;" vertex="1" parent="1">
          <mxGeometry x="120" y="100" width="100" height="60" as="geometry" />
        </mxCell>
        <mxCell id="I8V3-0tC-meu3FJkDAmC-20" value="Détection des Informations Nécessaires" style="text;html=1;strokeColor=#82b366;fillColor=#d5e8d4;align=center;verticalAlign=middle;whiteSpace=wrap;rounded=0;fontSize=16;" vertex="1" parent="1">
          <mxGeometry x="120" y="260" width="100" height="62.5" as="geometry" />
        </mxCell>
        <mxCell id="I8V3-0tC-meu3FJkDAmC-22" value="Affichage d&#39;État" style="text;html=1;strokeColor=#6c8ebf;fillColor=#dae8fc;align=center;verticalAlign=middle;whiteSpace=wrap;rounded=0;fontSize=16;" vertex="1" parent="1">
          <mxGeometry x="120" y="400" width="100" height="40" as="geometry" />
        </mxCell>
        <mxCell id="I8V3-0tC-meu3FJkDAmC-24" value="Stockage de Données" style="text;html=1;strokeColor=#9673a6;fillColor=#e1d5e7;align=center;verticalAlign=middle;whiteSpace=wrap;rounded=0;fontSize=16;" vertex="1" parent="1">
          <mxGeometry x="650" y="290" width="100" height="40" as="geometry" />
        </mxCell>
      </root>
    </mxGraphModel>
  </diagram>
</mxfile>
